[b][color=black]The.Vampire.Diaries.S03E21.HDTV [H264] [MPEG-4]-Sebastian[Ub3r]

Format                           : MPEG-4
Format profile                   : Base Media / Version 2
Codec ID                         : mp42
File size                        : 165 MiB
Duration                         : 41mn 48s
Overall bit rate                 : 552 Kbps
Encoded date                     : UTC 2012-09-25 11:40:11
Tagged date                      : UTC 2012-09-25 11:49:51

Video
ID                               : 1
Format                           : AVC
Format/Info                      : Advanced Video Codec
Format profile                   : Main@L3.0
Format settings, CABAC           : Yes
Format settings, ReFrames        : 4 frames
Format settings, GOP             : M=4, N=32
Codec ID                         : avc1
Codec ID/Info                    : Advanced Video Coding
Duration                         : 41mn 48s
Bit rate mode                    : Variable
Bit rate                         : 419 Kbps
Width                            : 640 pixels
Height                           : 360 pixels
Display aspect ratio             : 16:9
Frame rate mode                  : Variable
Frame rate                       : 23.976 fps
Minimum frame rate               : 23.974 fps
Maximum frame rate               : 23.981 fps
Color space                      : YUV
Chroma subsampling               : 4:2:0
Bit depth                        : 8 bits
Scan type                        : Progressive
Bits/(Pixel*Frame)               : 0.076
Stream size                      : 125 MiB (76%)
Writing library                  : x264 core 120
Encoded date                     : UTC 2012-09-25 11:40:11
Tagged date                      : UTC 2012-09-25 11:49:50

Audio
ID                               : 2
Format                           : AAC
Format/Info                      : Advanced Audio Codec
Format profile                   : LC
Codec ID                         : 40
Duration                         : 41mn 48s
Bit rate mode                    : Variable
Bit rate                         : 128 Kbps
Maximum bit rate                 : 254 Kbps
Channel(s)                       : 2 channels
Channel positions                : Front: L R
Sampling rate                    : 48.0 KHz
Compression mode                 : Lossy
Stream size                      : 38.2 MiB (23%)
Encoded date                     : UTC 2012-09-25 11:40:11
Tagged date                      : UTC 2012-09-25 11:49:49

Screenshots[/color][/b]
[img]http://imageshack.us/a/img826/3856/thevampirediariess03e21.jpg[/img]

[img]http://kastatic.com/i2/users/133df62bbf28e62494bb17fe11078f1a.gif[/img][img]http://kastatic.com/i2/users/133df62bbf28e62494bb17fe11078f1a.gif[/img]